<svg width="195" height="199" viewBox="0 0 195 199" fill="none" xmlns="http://www.w3.org/2000/svg">
<mask id="mask0_67_37" style="mask-type:luminance" maskUnits="userSpaceOnUse" x="0" y="82" width="195" height="117">
<path d="M0 82.9377H194.667V198.776H0V82.9377Z" fill="white"/>
</mask>
<g mask="url(#mask0_67_37)">
<path d="M0.515625 83.7554V191.745C0.515625 195.88 3.83333 198.776 7.5625 198.776H187.354C191.5 198.776 194.401 195.469 194.401 191.745V83.7554H0.515625Z" fill="#E7B95E"/>
</g>
<mask id="mask1_67_37" style="mask-type:luminance" maskUnits="userSpaceOnUse" x="0" y="82" width="195" height="117">
<path d="M0 82.9377H194.667V198.776H0V82.9377Z" fill="white"/>
</mask>
<g mask="url(#mask1_67_37)">
<path d="M0.515625 83.7554V191.745C0.515625 195.88 3.83333 198.776 7.5625 198.776H187.354C191.5 198.776 194.401 195.469 194.401 191.745V83.7554H0.515625Z" fill="#E7B95E"/>
</g>
<path d="M131.015 151.198C131.015 152.297 130.958 153.391 130.854 154.479C130.744 155.573 130.583 156.657 130.369 157.735C130.156 158.813 129.89 159.875 129.567 160.927C129.249 161.974 128.88 163.006 128.458 164.021C128.041 165.037 127.572 166.026 127.051 166.995C126.536 167.964 125.968 168.901 125.359 169.818C124.749 170.729 124.093 171.61 123.395 172.459C122.697 173.308 121.963 174.12 121.187 174.896C120.411 175.672 119.593 176.407 118.744 177.104C117.895 177.797 117.015 178.453 116.098 179.063C115.187 179.672 114.244 180.235 113.275 180.756C112.307 181.271 111.312 181.74 110.301 182.162C109.286 182.578 108.249 182.948 107.197 183.266C106.145 183.584 105.083 183.855 104.005 184.068C102.926 184.282 101.838 184.443 100.744 184.547C99.6504 184.657 98.5566 184.709 97.4577 184.709C96.3587 184.709 95.2598 184.657 94.166 184.547C93.0723 184.443 91.9889 184.282 90.9108 184.068C89.8327 183.855 88.7702 183.584 87.7181 183.266C86.666 182.948 85.6296 182.578 84.6139 182.162C83.5983 181.74 82.6087 181.271 81.64 180.756C80.6712 180.235 79.7285 179.672 78.8171 179.063C77.9004 178.453 77.0202 177.797 76.1712 177.104C75.3223 176.407 74.5046 175.672 73.7285 174.896C72.9525 174.12 72.2129 173.308 71.5202 172.459C70.8223 171.61 70.166 170.729 69.5566 169.818C68.9473 168.901 68.3796 167.964 67.8639 166.995C67.3431 166.026 66.8743 165.037 66.4577 164.021C66.0358 163.006 65.666 161.974 65.3483 160.927C65.0254 159.875 64.7598 158.813 64.5462 157.735C64.3327 156.657 64.1712 155.573 64.0618 154.479C63.9525 153.391 63.9004 152.297 63.9004 151.198C63.9004 150.099 63.9525 149.006 64.0618 147.912C64.1712 146.818 64.3327 145.735 64.5462 144.657C64.7598 143.584 65.0254 142.521 65.3483 141.469C65.666 140.417 66.0358 139.386 66.4577 138.37C66.8743 137.36 67.3431 136.365 67.8639 135.401C68.3796 134.433 68.9473 133.49 69.5566 132.578C70.166 131.667 70.8223 130.787 71.5202 129.938C72.2129 129.089 72.9525 128.276 73.7285 127.5C74.5046 126.724 75.3223 125.985 76.1712 125.292C77.0202 124.594 77.9004 123.943 78.8171 123.334C79.7285 122.724 80.6712 122.157 81.64 121.641C82.6087 121.125 83.5983 120.657 84.6139 120.235C85.6296 119.813 86.666 119.443 87.7181 119.125C88.7702 118.808 89.8327 118.542 90.9108 118.328C91.9889 118.115 93.0723 117.953 94.166 117.844C95.2598 117.735 96.3587 117.683 97.4577 117.683C98.5566 117.683 99.6504 117.735 100.744 117.844C101.838 117.953 102.926 118.115 104.005 118.328C105.083 118.542 106.145 118.808 107.197 119.125C108.249 119.443 109.286 119.813 110.301 120.235C111.312 120.657 112.307 121.125 113.275 121.641C114.244 122.157 115.187 122.724 116.098 123.334C117.015 123.943 117.895 124.594 118.744 125.292C119.593 125.985 120.411 126.724 121.187 127.5C121.963 128.276 122.697 129.089 123.395 129.938C124.093 130.787 124.749 131.667 125.359 132.578C125.968 133.49 126.536 134.433 127.051 135.401C127.572 136.365 128.041 137.36 128.458 138.37C128.88 139.386 129.249 140.417 129.567 141.469C129.89 142.521 130.156 143.584 130.369 144.657C130.583 145.735 130.744 146.818 130.854 147.912C130.958 149.006 131.015 150.099 131.015 151.198Z" fill="#88C057"/>
<path d="M131.015 151.198C131.015 152.297 130.958 153.391 130.854 154.479C130.744 155.573 130.583 156.657 130.369 157.735C130.156 158.813 129.89 159.875 129.567 160.927C129.249 161.974 128.88 163.006 128.458 164.021C128.041 165.037 127.572 166.026 127.051 166.995C126.536 167.964 125.968 168.901 125.359 169.818C124.749 170.729 124.093 171.61 123.395 172.459C122.697 173.308 121.963 174.12 121.187 174.896C120.411 175.672 119.593 176.407 118.744 177.104C117.895 177.797 117.015 178.453 116.098 179.063C115.187 179.672 114.244 180.235 113.275 180.756C112.307 181.271 111.312 181.74 110.301 182.162C109.286 182.578 108.249 182.948 107.197 183.266C106.145 183.584 105.083 183.855 104.005 184.068C102.926 184.282 101.838 184.443 100.744 184.547C99.6504 184.657 98.5566 184.709 97.4577 184.709C96.3587 184.709 95.2598 184.657 94.166 184.547C93.0723 184.443 91.9889 184.282 90.9108 184.068C89.8327 183.855 88.7702 183.584 87.7181 183.266C86.666 182.948 85.6296 182.578 84.6139 182.162C83.5983 181.74 82.6087 181.271 81.64 180.756C80.6712 180.235 79.7285 179.672 78.8171 179.063C77.9004 178.453 77.0202 177.797 76.1712 177.104C75.3223 176.407 74.5046 175.672 73.7285 174.896C72.9525 174.12 72.2129 173.308 71.5202 172.459C70.8223 171.61 70.166 170.729 69.5566 169.818C68.9473 168.901 68.3796 167.964 67.8639 166.995C67.3431 166.026 66.8743 165.037 66.4577 164.021C66.0358 163.006 65.666 161.974 65.3483 160.927C65.0254 159.875 64.7598 158.813 64.5462 157.735C64.3327 156.657 64.1712 155.573 64.0618 154.479C63.9525 153.391 63.9004 152.297 63.9004 151.198C63.9004 150.099 63.9525 149.006 64.0618 147.912C64.1712 146.818 64.3327 145.735 64.5462 144.657C64.7598 143.584 65.0254 142.521 65.3483 141.469C65.666 140.417 66.0358 139.386 66.4577 138.37C66.8743 137.36 67.3431 136.365 67.8639 135.401C68.3796 134.433 68.9473 133.49 69.5566 132.578C70.166 131.667 70.8223 130.787 71.5202 129.938C72.2129 129.089 72.9525 128.276 73.7285 127.5C74.5046 126.724 75.3223 125.985 76.1712 125.292C77.0202 124.594 77.9004 123.943 78.8171 123.334C79.7285 122.724 80.6712 122.157 81.64 121.641C82.6087 121.125 83.5983 120.657 84.6139 120.235C85.6296 119.813 86.666 119.443 87.7181 119.125C88.7702 118.808 89.8327 118.542 90.9108 118.328C91.9889 118.115 93.0723 117.953 94.166 117.844C95.2598 117.735 96.3587 117.683 97.4577 117.683C98.5566 117.683 99.6504 117.735 100.744 117.844C101.838 117.953 102.926 118.115 104.005 118.328C105.083 118.542 106.145 118.808 107.197 119.125C108.249 119.443 109.286 119.813 110.301 120.235C111.312 120.657 112.307 121.125 113.275 121.641C114.244 122.157 115.187 122.724 116.098 123.334C117.015 123.943 117.895 124.594 118.744 125.292C119.593 125.985 120.411 126.724 121.187 127.5C121.963 128.276 122.697 129.089 123.395 129.938C124.093 130.787 124.749 131.667 125.359 132.578C125.968 133.49 126.536 134.433 127.051 135.401C127.572 136.365 128.041 137.36 128.458 138.37C128.88 139.386 129.249 140.417 129.567 141.469C129.89 142.521 130.156 143.584 130.369 144.657C130.583 145.735 130.744 146.818 130.854 147.912C130.958 149.006 131.015 150.099 131.015 151.198Z" fill="#88C057"/>
<path d="M96.2132 173.125V169.401C91.2445 168.99 86.6872 166.917 82.958 163.61L86.6872 159.058C89.5882 161.542 92.9007 163.198 95.8018 163.61V153.266C91.6559 152.438 88.7601 151.198 87.0986 149.542C85.0309 147.886 84.2028 145.818 84.2028 142.511C84.2028 139.61 85.4424 136.714 87.5153 135.063C89.5882 132.99 92.4841 132.167 95.8018 131.75V129.266H99.1143V132.167C103.26 132.578 106.984 133.818 110.302 136.302L106.984 141.266C104.5 139.61 102.015 138.37 99.1143 137.959V147.886C103.26 148.714 106.156 150.37 108.229 151.61C110.302 153.266 111.13 155.75 111.13 158.646C111.13 161.953 109.885 164.438 107.817 166.505C105.744 168.573 102.843 169.401 99.1143 169.818V173.542H96.2132V173.125ZM92.484 138.787C91.6559 139.61 91.2445 140.438 91.2445 141.683C91.2445 142.922 91.6559 143.75 92.484 144.578C93.3174 145.406 94.557 145.818 96.6299 146.646V137.542C94.557 137.542 93.3174 137.959 92.484 138.787ZM103.672 162.37C104.5 161.542 105.328 160.297 105.328 159.058C105.328 157.818 104.916 156.99 104.088 156.162C103.26 155.334 102.015 154.922 99.5309 154.094V163.61C101.599 163.61 102.843 163.198 103.672 162.37Z" fill="white"/>
<path d="M96.2132 173.125V169.401C91.2445 168.99 86.6872 166.917 82.958 163.61L86.6872 159.058C89.5882 161.542 92.9007 163.198 95.8018 163.61V153.266C91.6559 152.438 88.7601 151.198 87.0986 149.542C85.0309 147.886 84.2028 145.818 84.2028 142.511C84.2028 139.61 85.4424 136.714 87.5153 135.063C89.5882 132.99 92.4841 132.167 95.8018 131.75V129.266H99.1143V132.167C103.26 132.578 106.984 133.818 110.302 136.302L106.984 141.266C104.5 139.61 102.015 138.37 99.1143 137.959V147.886C103.26 148.714 106.156 150.37 108.229 151.61C110.302 153.266 111.13 155.75 111.13 158.646C111.13 161.953 109.885 164.438 107.817 166.505C105.744 168.573 102.843 169.401 99.1143 169.818V173.542H96.2132V173.125ZM92.484 138.787C91.6559 139.61 91.2445 140.438 91.2445 141.683C91.2445 142.922 91.6559 143.75 92.484 144.578C93.3174 145.406 94.557 145.818 96.6299 146.646V137.542C94.557 137.542 93.3174 137.959 92.484 138.787ZM103.672 162.37C104.5 161.542 105.328 160.297 105.328 159.058C105.328 157.818 104.916 156.99 104.088 156.162C103.26 155.334 102.015 154.922 99.5309 154.094V163.61C101.599 163.61 102.843 163.198 103.672 162.37Z" fill="white"/>
<path d="M194.401 81.271L189.843 61.4116C189.015 58.1043 186.114 56.0366 183.213 56.0366H12.1193C8.80161 56.0366 5.90057 58.1043 5.48911 61.4116L0.931817 81.271C-0.312975 85.8231 3.00473 89.9637 7.56203 89.9637H187.77C191.911 89.547 195.229 85.4116 194.401 81.271Z" fill="#FFCC67"/>
<path d="M194.401 81.271L189.843 61.4116C189.015 58.1043 186.114 56.0366 183.213 56.0366H12.1193C8.80161 56.0366 5.90057 58.1043 5.48911 61.4116L0.931817 81.271C-0.312975 85.8231 3.00473 89.9637 7.56203 89.9637H187.77C191.911 89.547 195.229 85.4116 194.401 81.271Z" fill="#FFCC67"/>
<path d="M136.813 69.2764H58.1042C56.0313 69.2764 54.375 70.9274 54.375 73.0003C54.375 75.068 56.0313 76.7243 58.1042 76.7243H136.813C138.885 76.7243 140.542 75.068 140.542 73.0003C140.542 70.9274 138.885 69.2764 136.813 69.2764Z" fill="#676767"/>
<path d="M136.813 69.2764H58.1042C56.0313 69.2764 54.375 70.9274 54.375 73.0003C54.375 75.068 56.0313 76.7243 58.1042 76.7243H136.813C138.885 76.7243 140.542 75.068 140.542 73.0003C140.542 70.9274 138.885 69.2764 136.813 69.2764Z" fill="#676767"/>
<path d="M121.484 0.177272C111.542 -0.650853 103.26 4.72936 99.1146 12.5939C95.3854 4.3179 86.6875 -1.06231 76.7448 0.177272C64.7292 1.42206 56.0313 12.1773 56.4427 24.5887C57.6875 52.3127 80.474 65.5523 95.3854 73.0002C97.875 74.2398 100.771 74.2398 102.844 73.0002C117.755 65.5523 140.542 52.7241 141.786 24.5887C142.198 12.1773 133.5 1.42206 121.484 0.177272Z" fill="#ED7161"/>
<path d="M121.484 0.177272C111.542 -0.650853 103.26 4.72936 99.1146 12.5939C95.3854 4.3179 86.6875 -1.06231 76.7448 0.177272C64.7292 1.42206 56.0313 12.1773 56.4427 24.5887C57.6875 52.3127 80.474 65.5523 95.3854 73.0002C97.875 74.2398 100.771 74.2398 102.844 73.0002C117.755 65.5523 140.542 52.7241 141.786 24.5887C142.198 12.1773 133.5 1.42206 121.484 0.177272Z" fill="#ED7161"/>
<path d="M133.089 5.146C136.813 9.69287 138.885 15.4897 138.474 21.6929C137.229 49.4168 114.443 62.6564 99.5313 70.1043C97.0417 71.3439 94.1458 71.3439 92.0729 70.1043C85.0313 66.7918 76.3281 61.8283 68.875 55.2085C76.7448 63.896 87.099 69.2762 94.974 73.4116C97.4583 74.6512 100.359 74.6512 102.427 73.4116C117.344 65.9637 140.13 53.1408 141.37 25.0054C142.198 16.7293 138.885 9.69287 133.089 5.146Z" fill="#D66556"/>
<path d="M133.089 5.146C136.813 9.69287 138.885 15.4897 138.474 21.6929C137.229 49.4168 114.443 62.6564 99.5313 70.1043C97.0417 71.3439 94.1458 71.3439 92.0729 70.1043C85.0313 66.7918 76.3281 61.8283 68.875 55.2085C76.7448 63.896 87.099 69.2762 94.974 73.4116C97.4583 74.6512 100.359 74.6512 102.427 73.4116C117.344 65.9637 140.13 53.1408 141.37 25.0054C142.198 16.7293 138.885 9.69287 133.089 5.146Z" fill="#D66556"/>
</svg>
