<svg width="201" height="200" viewBox="0 0 201 200" fill="none" xmlns="http://www.w3.org/2000/svg">
<mask id="mask0_0_1" style="mask-type:luminance" maskUnits="userSpaceOnUse" x="0" y="0" width="201" height="200">
<path d="M0.760742 0H200.297V199.536H0.760742V0Z" fill="white"/>
</mask>
<g mask="url(#mask0_0_1)">
<path d="M200.354 99.8333C200.354 101.463 200.313 103.094 200.234 104.729C200.151 106.359 200.031 107.984 199.87 109.609C199.714 111.234 199.51 112.854 199.271 114.469C199.031 116.083 198.755 117.693 198.438 119.297C198.115 120.896 197.76 122.49 197.365 124.073C196.964 125.656 196.531 127.229 196.057 128.792C195.583 130.354 195.073 131.901 194.521 133.443C193.969 134.979 193.385 136.5 192.76 138.01C192.135 139.516 191.474 141.01 190.776 142.484C190.078 143.963 189.344 145.422 188.573 146.859C187.802 148.302 187 149.719 186.161 151.12C185.318 152.521 184.448 153.901 183.542 155.255C182.63 156.615 181.693 157.948 180.719 159.26C179.745 160.573 178.745 161.859 177.708 163.12C176.672 164.38 175.604 165.62 174.51 166.828C173.411 168.036 172.286 169.219 171.13 170.375C169.979 171.531 168.797 172.656 167.589 173.75C166.375 174.849 165.141 175.911 163.88 176.948C162.615 177.984 161.328 178.99 160.016 179.963C158.708 180.932 157.37 181.875 156.016 182.781C154.656 183.687 153.276 184.562 151.88 185.401C150.479 186.24 149.057 187.047 147.62 187.812C146.177 188.583 144.719 189.318 143.245 190.016C141.766 190.713 140.276 191.375 138.766 192C137.26 192.625 135.734 193.213 134.198 193.76C132.661 194.312 131.109 194.823 129.547 195.297C127.984 195.771 126.411 196.208 124.828 196.604C123.245 197 121.656 197.359 120.052 197.677C118.453 197.995 116.844 198.276 115.229 198.516C113.615 198.755 111.995 198.953 110.37 199.115C108.745 199.276 107.115 199.396 105.484 199.474C103.854 199.552 102.224 199.594 100.589 199.594C98.9583 199.594 97.3229 199.552 95.6927 199.474C94.0625 199.396 92.4375 199.276 90.8125 199.115C89.1875 198.953 87.5677 198.755 85.9531 198.516C84.3385 198.276 82.7292 197.995 81.125 197.677C79.526 197.359 77.9323 197 76.349 196.604C74.7656 196.208 73.1927 195.771 71.6302 195.297C70.0677 194.823 68.5156 194.312 66.9792 193.76C65.4427 193.213 63.9219 192.625 62.4115 192C60.9063 191.375 59.4115 190.713 57.9375 190.016C56.4583 189.318 55 188.583 53.5625 187.812C52.1198 187.047 50.7031 186.24 49.3021 185.401C47.901 184.562 46.5208 183.687 45.1667 182.781C43.8073 181.875 42.474 180.932 41.1615 179.963C39.849 178.99 38.5625 177.984 37.3021 176.948C36.0365 175.911 34.8021 174.849 33.5938 173.75C32.3854 172.656 31.2031 171.531 30.0469 170.375C28.8906 169.219 27.7656 168.036 26.6719 166.828C25.5729 165.62 24.5104 164.38 23.474 163.12C22.4375 161.859 21.4323 160.573 20.4583 159.26C19.4896 157.948 18.5469 156.615 17.6406 155.255C16.7344 153.901 15.8594 152.521 15.0208 151.12C14.1823 149.719 13.375 148.302 12.6094 146.859C11.8385 145.422 11.1042 143.963 10.4063 142.484C9.70833 141.01 9.04688 139.516 8.42188 138.01C7.79688 136.5 7.20833 134.979 6.66146 133.443C6.10937 131.901 5.59896 130.354 5.125 128.792C4.65104 127.229 4.21354 125.656 3.81771 124.073C3.42188 122.49 3.0625 120.896 2.74479 119.297C2.42708 117.693 2.14583 116.083 1.90625 114.469C1.66667 112.854 1.46875 111.234 1.30729 109.609C1.14583 107.984 1.02604 106.359 0.947917 104.729C0.869791 103.094 0.828125 101.463 0.828125 99.8333C0.828125 98.1978 0.869791 96.5676 0.947917 94.9374C1.02604 93.3072 1.14583 91.677 1.30729 90.052C1.46875 88.427 1.66667 86.8072 1.90625 85.1926C2.14583 83.578 2.42708 81.9687 2.74479 80.3697C3.0625 78.7655 3.42188 77.177 3.81771 75.5937C4.21354 74.0051 4.65104 72.4322 5.125 70.8697C5.59896 69.3124 6.10937 67.7603 6.66146 66.2239C7.20833 64.6874 7.79688 63.1614 8.42188 61.6562C9.04688 60.1458 9.70833 58.6562 10.4063 57.177C11.1042 55.703 11.8385 54.2447 12.6094 52.802C13.375 51.3645 14.1823 49.9426 15.0208 48.5416C15.8594 47.1458 16.7344 45.7655 17.6406 44.4062C18.5469 43.0468 19.4896 41.7135 20.4583 40.401C21.4323 39.0937 22.4375 37.8072 23.474 36.5416C24.5104 35.2812 25.5729 34.0468 26.6719 32.8333C27.7656 31.6249 28.8906 30.4426 30.0469 29.2916C31.2031 28.1353 32.3854 27.0103 33.5938 25.9114C34.8021 24.8176 36.0365 23.7499 37.3021 22.7135C38.5625 21.677 39.849 20.677 41.1615 19.703C42.474 18.7291 43.8073 17.7916 45.1667 16.8801C46.5208 15.9739 47.901 15.1041 49.3021 14.2603C50.7031 13.4218 52.1198 12.6197 53.5625 11.8489C55 11.078 56.4583 10.3437 57.9375 9.64575C59.4115 8.94784 60.9063 8.28638 62.4115 7.66138C63.9219 7.03638 65.4427 6.45304 66.9792 5.90096C68.5156 5.34888 70.0677 4.83846 71.6302 4.3645C73.1927 3.89054 74.7656 3.45825 76.349 3.05721C77.9323 2.66138 79.526 2.30721 81.125 1.98429C82.7292 1.66659 84.3385 1.39054 85.9531 1.15096C87.5677 0.911377 89.1875 0.708252 90.8125 0.552001C92.4375 0.390544 94.0625 0.270752 95.6927 0.187419C97.3229 0.109294 98.9583 0.067627 100.589 0.067627C102.224 0.067627 103.854 0.109294 105.484 0.187419C107.115 0.270752 108.745 0.390544 110.37 0.552001C111.995 0.708252 113.615 0.911377 115.229 1.15096C116.844 1.39054 118.453 1.66659 120.052 1.98429C121.656 2.30721 123.245 2.66138 124.828 3.05721C126.411 3.45825 127.984 3.89054 129.547 4.3645C131.109 4.83846 132.661 5.34888 134.198 5.90096C135.734 6.45304 137.26 7.03638 138.766 7.66138C140.276 8.28638 141.766 8.94784 143.245 9.64575C144.719 10.3437 146.177 11.078 147.62 11.8489C149.057 12.6197 150.479 13.4218 151.88 14.2603C153.276 15.1041 154.656 15.9739 156.016 16.8801C157.37 17.7916 158.708 18.7291 160.016 19.703C161.328 20.677 162.615 21.677 163.88 22.7135C165.141 23.7499 166.375 24.8176 167.589 25.9114C168.797 27.0103 169.979 28.1353 171.13 29.2916C172.286 30.4426 173.411 31.6249 174.51 32.8333C175.604 34.0468 176.672 35.2812 177.708 36.5416C178.745 37.8072 179.745 39.0937 180.719 40.401C181.693 41.7135 182.63 43.0468 183.542 44.4062C184.448 45.7655 185.318 47.1458 186.161 48.5416C187 49.9426 187.802 51.3645 188.573 52.802C189.344 54.2447 190.078 55.703 190.776 57.177C191.474 58.6562 192.135 60.1458 192.76 61.6562C193.385 63.1614 193.969 64.6874 194.521 66.2239C195.073 67.7603 195.583 69.3124 196.057 70.8697C196.531 72.4322 196.964 74.0051 197.365 75.5937C197.76 77.177 198.115 78.7655 198.438 80.3697C198.755 81.9687 199.031 83.578 199.271 85.1926C199.51 86.8072 199.714 88.427 199.87 90.052C200.031 91.677 200.151 93.3072 200.234 94.9374C200.313 96.5676 200.354 98.1978 200.354 99.8333Z" fill="#FAC832"/>
</g>
<path d="M41.7236 98.2135C41.7236 108.312 51.5518 118.896 63.6716 118.896C75.7966 118.896 85.6195 108.312 85.6195 98.2135C85.6924 96.4844 84.8486 95.5833 84.3538 96.125C84.0518 96.4583 83.7393 96.7812 83.4059 97.099C83.0778 97.4167 82.7341 97.724 82.3747 98.026C82.0153 98.3229 81.6455 98.6146 81.2601 98.901C80.8799 99.1823 80.4788 99.4531 80.0726 99.7187C79.6663 99.9792 79.2445 100.234 78.8174 100.474C78.3851 100.719 77.9424 100.953 77.4893 101.172C77.0413 101.396 76.5778 101.604 76.1091 101.807C75.6403 102.005 75.1611 102.193 74.6716 102.37C74.1872 102.547 73.6924 102.708 73.1924 102.865C72.6924 103.016 72.182 103.156 71.6663 103.286C71.1559 103.411 70.6351 103.531 70.1091 103.63C69.5882 103.734 69.057 103.828 68.5257 103.906C67.9945 103.984 67.458 104.047 66.9216 104.099C66.3799 104.151 65.8434 104.193 65.3018 104.219C64.7601 104.245 64.2132 104.255 63.6716 104.255C63.1299 104.255 62.5882 104.245 62.0466 104.219C61.5049 104.193 60.9632 104.151 60.4268 104.099C59.8903 104.047 59.3538 103.984 58.8226 103.906C58.2861 103.828 57.7601 103.734 57.234 103.63C56.708 103.531 56.1924 103.411 55.6768 103.286C55.1611 103.156 54.6559 103.016 54.1559 102.865C53.6507 102.708 53.1559 102.547 52.6715 102.37C52.182 102.193 51.708 102.005 51.234 101.807C50.7653 101.604 50.307 101.396 49.8538 101.172C49.4007 100.953 48.9632 100.719 48.5309 100.474C48.0986 100.234 47.682 99.9792 47.2705 99.7187C46.8643 99.4531 46.4684 99.1823 46.083 98.901C45.7028 98.6146 45.3278 98.3229 44.9736 98.026C44.6143 97.724 44.2705 97.4167 43.9372 97.099C43.609 96.7812 43.2913 96.4583 42.9893 96.125C42.4945 95.5833 41.7393 96.4844 41.7236 98.2135Z" fill="#4D4D4D"/>
<path d="M115.553 98.2135C115.553 108.312 125.381 118.896 137.501 118.896C149.626 118.896 159.449 108.312 159.449 98.2135C159.521 96.4844 158.678 95.5833 158.183 96.125C157.881 96.4583 157.568 96.7812 157.235 97.099C156.907 97.4167 156.563 97.724 156.204 98.026C155.844 98.3229 155.475 98.6146 155.089 98.901C154.709 99.1823 154.313 99.4531 153.902 99.7187C153.495 99.9792 153.074 100.234 152.646 100.474C152.214 100.719 151.771 100.953 151.324 101.172C150.87 101.396 150.407 101.604 149.938 101.807C149.469 102.005 148.99 102.193 148.501 102.37C148.016 102.547 147.521 102.708 147.021 102.865C146.521 103.016 146.011 103.156 145.495 103.286C144.985 103.411 144.464 103.531 143.938 103.63C143.417 103.734 142.886 103.828 142.355 103.906C141.824 103.984 141.287 104.047 140.751 104.099C140.209 104.151 139.673 104.193 139.131 104.219C138.589 104.245 138.042 104.255 137.501 104.255C136.959 104.255 136.417 104.245 135.876 104.219C135.334 104.193 134.792 104.151 134.256 104.099C133.719 104.047 133.183 103.984 132.652 103.906C132.115 103.828 131.589 103.734 131.063 103.63C130.542 103.531 130.021 103.411 129.506 103.286C128.99 103.156 128.485 103.016 127.985 102.865C127.48 102.708 126.985 102.547 126.501 102.37C126.011 102.193 125.537 102.005 125.063 101.807C124.594 101.604 124.136 101.396 123.683 101.172C123.23 100.953 122.792 100.719 122.36 100.474C121.928 100.234 121.511 99.9792 121.1 99.7187C120.693 99.4531 120.298 99.1823 119.912 98.901C119.532 98.6146 119.157 98.3229 118.803 98.026C118.443 97.724 118.1 97.4167 117.766 97.099C117.438 96.7812 117.12 96.4583 116.818 96.125C116.324 95.5833 115.568 96.4844 115.553 98.2135Z" fill="#4D4D4D"/>
<mask id="mask1_0_1" style="mask-type:luminance" maskUnits="userSpaceOnUse" x="0" y="5" width="135" height="131">
<path d="M0.760742 5.33337H134.667V136H0.760742V5.33337Z" fill="white"/>
</mask>
<g mask="url(#mask1_0_1)">
<path d="M77.8437 62.099C74.8385 68.9532 69.2292 74.3177 62.6146 76.6615C56.0052 79 48.5156 80.2032 40.7344 77.3125" stroke="#D99800" stroke-width="9.97685" stroke-linecap="round"/>
</g>
<mask id="mask2_0_1" style="mask-type:luminance" maskUnits="userSpaceOnUse" x="66" y="5" width="135" height="131">
<path d="M66.667 5.33337H200.297V136H66.667V5.33337Z" fill="white"/>
</mask>
<g mask="url(#mask2_0_1)">
<path d="M123.334 62.099C126.344 68.9532 131.954 74.3177 138.563 76.6615C145.173 79 152.667 80.2032 160.449 77.3125" stroke="#D99800" stroke-width="9.97685" stroke-linecap="round"/>
</g>
<mask id="mask3_0_1" style="mask-type:luminance" maskUnits="userSpaceOnUse" x="24" y="93" width="154" height="107">
<path d="M24 93.3334H177.333V199.537H24V93.3334Z" fill="white"/>
</mask>
<g mask="url(#mask3_0_1)">
<path d="M80.6357 153.573C86.8493 151.187 93.4951 149.995 100.573 149.995C107.662 149.995 114.318 151.187 120.542 153.583" stroke="#4D4D4D" stroke-width="9.97685" stroke-linecap="round"/>
</g>
</svg>
