<svg width="362" height="351" viewBox="0 0 362 351" fill="none" xmlns="http://www.w3.org/2000/svg">
<g clip-path="url(#clip0_57_13)">
<rect width="362" height="351" rx="175.5" fill="white"/>
<mask id="mask0_57_13" style="mask-type:luminance" maskUnits="userSpaceOnUse" x="209" y="121" width="153" height="214">
<path d="M209.017 121.086H362V335H209.017V121.086Z" fill="white"/>
</mask>
<g mask="url(#mask0_57_13)">
<path d="M307.632 156.519C300.546 156.703 294.653 159.246 289.95 164.142C285.247 169.037 282.805 175.171 282.625 182.549C282.632 184.95 282.931 187.256 283.52 189.466L284.592 192.681C285.442 194.764 286.521 196.686 287.836 198.455C291.935 203.918 297.401 207.213 304.237 208.341C305.378 208.468 306.491 208.533 307.584 208.533C313.356 208.533 318.468 206.737 322.913 203.154C328.161 198.888 331.325 193.195 332.408 186.078L332.636 182.549C332.459 175.171 330.017 169.037 325.314 164.142C320.607 159.246 314.715 156.703 307.632 156.519ZM246.583 121.93C252.384 181.302 252.907 222.539 248.149 245.631C243.42 272.152 232.01 299.717 213.919 328.328L209.908 335.073C232.194 332.15 248.808 327.151 259.746 320.076C268.674 315.852 281.94 304.585 299.533 286.27C315.444 268.749 328.393 250.948 338.392 232.867C348.738 213.505 356.579 191.653 361.919 167.311H361.912C348.16 189.976 336.879 205.31 328.073 213.317C319.609 221.918 304.981 231.494 284.194 242.04C282.864 215.116 279.94 194.986 275.417 181.651C271.583 168.296 261.974 148.389 246.587 121.93H246.583Z" fill="#9C26B0"/>
</g>
<mask id="mask1_57_13" style="mask-type:luminance" maskUnits="userSpaceOnUse" x="-38" y="106" width="185" height="219">
<path d="M-38 106.354H146.79V324.385H-38V106.354Z" fill="white"/>
</mask>
<g mask="url(#mask1_57_13)">
<path d="M41.3416 139.086C35.0437 139.251 29.6887 141.277 25.2728 145.163C22.6137 147.799 21.1442 149.46 20.8606 150.158C20.0393 151.366 19.3285 152.64 18.7282 153.971C17.5312 156.638 16.7836 159.549 16.4815 162.703C15.7928 169.041 17.4796 175.144 21.5456 181.022C23.3687 183.45 25.4606 185.449 27.8214 187.022C29.0037 187.808 30.2522 188.487 31.5707 189.059C34.9553 190.291 37.0767 190.908 37.9312 190.908C37.9386 190.908 37.9422 190.908 37.9496 190.908C39.0876 191.035 40.2036 191.1 41.2937 191.1C41.7283 191.1 42.1592 191.089 42.5865 191.069C46.251 190.67 48.3945 190.283 49.0169 189.903C51.7387 189.009 54.2725 187.617 56.6223 185.721C58.9536 183.826 60.8761 181.647 62.3861 179.188C63.1412 177.96 63.793 176.66 64.3418 175.286C64.7469 174.692 65.3399 172.478 66.1207 168.646L66.349 165.116C66.268 161.836 65.7413 158.805 64.769 156.016C64.2829 154.623 63.6825 153.288 62.9717 152.019C61.0013 148.946 59.6865 147.177 59.0236 146.709C57.9776 145.619 56.8727 144.649 55.7126 143.793C52.6999 141.86 50.8253 140.835 50.0813 140.728C47.4038 139.715 44.4906 139.167 41.3416 139.086ZM42.8185 106.868C59.0788 127.607 69.7042 143.713 74.691 155.191C80.2412 166.47 85.4195 184.498 90.2331 209.269C72.1644 202.533 55.7568 199.011 41.0175 198.704C38.8335 198.554 36.2812 198.481 33.3606 198.481C18.7908 198.481 -4.93863 200.338 -37.835 204.059C14.9457 216.301 51.1862 229.407 70.8901 243.371C93.603 258.444 116.452 282.633 139.43 315.937L144.877 323.452C146.87 296.924 146.925 275.087 145.051 257.93C143.356 245.65 142.078 238.257 141.213 235.752C138.786 225.777 135.501 215.895 131.357 206.108C115.951 167.414 89.7212 136.466 52.6631 113.252C49.3889 111.103 46.1074 108.974 42.8222 106.868H42.8185Z" fill="#00BCD4"/>
</g>
<path d="M153.625 37.3752C144.756 37.6054 137.379 40.7896 131.49 46.9202C125.601 53.0507 122.544 60.7312 122.319 69.9616C122.327 72.9732 122.702 75.8582 123.439 78.6281L124.78 82.6486C125.844 85.2574 127.199 87.6667 128.842 89.8764C133.976 96.7168 140.819 100.845 149.378 102.253C150.804 102.414 152.199 102.494 153.566 102.494C160.792 102.494 167.189 100.25 172.758 95.7615C179.328 90.4212 183.291 83.2932 184.646 74.385L184.934 69.9616C184.709 60.7312 181.652 53.0507 175.763 46.9202C169.874 40.7896 162.493 37.6054 153.625 37.3752ZM196.333 17C199.507 45.1247 200.144 66.1713 198.24 80.1396C196.962 94.1272 191.548 115.013 182.006 142.8C155.558 121.604 134.389 106.519 118.5 97.5454C103.087 88.2843 77.3061 76.0193 41.1541 60.7504H41.1504C101.415 118.139 137.703 161.901 150.015 192.029C153.47 199.533 156.339 207.083 158.615 214.679C160.331 218.431 162.689 229.913 165.69 249.122C167.996 272.279 168.368 295.589 166.813 319.056L166.25 330.772C186.322 308.371 201.006 287.463 210.302 268.051C218.39 251.455 224.143 231.666 227.564 208.69C236.385 142.063 230.264 86.7229 209.201 42.6656C205.05 33.8418 200.763 25.2866 196.336 17H196.333Z" fill="#FE9800"/>
<mask id="mask2_57_13" style="mask-type:luminance" maskUnits="userSpaceOnUse" x="-38" y="106" width="162" height="130">
<path d="M-38 106.354H123.219V235.012H-38V106.354Z" fill="white"/>
</mask>
<g mask="url(#mask2_57_13)">
<path d="M41.3416 139.086C35.0437 139.251 29.6887 141.277 25.2728 145.163C22.6137 147.799 21.1442 149.46 20.8606 150.158C20.0393 151.366 19.3285 152.64 18.7282 153.971C17.5312 156.638 16.7835 159.549 16.4815 162.703C15.7928 169.041 17.4796 175.144 21.5456 181.022C23.3687 183.45 25.4606 185.449 27.8214 187.022C29.0037 187.808 30.2522 188.487 31.5707 189.059C31.7033 189.105 31.8322 189.155 31.9611 189.201C30.9335 188.146 29.906 186.861 28.8711 185.342C26.2635 181.421 25.1623 179.188 25.5601 178.647C25.0518 175.582 25.096 172.724 25.6927 170.073C25.9357 168.753 27.0959 167 29.1804 164.813C30.5873 163.463 33.8725 162.009 39.0324 160.451C40.1189 159.799 42.8369 157.267 47.1939 152.855L48.6855 151.915C49.7462 151.397 50.9394 151.098 52.2616 151.01C53.2082 151.152 54.0958 151.374 54.9355 151.677C58.3275 152.928 60.7804 155.372 62.2904 159.005C63.4689 162.262 64.1245 167.767 64.2534 175.513C64.2829 175.44 64.3123 175.363 64.3418 175.286C64.7469 174.692 65.3399 172.478 66.1207 168.646L66.349 165.116C66.268 161.836 65.7413 158.805 64.769 156.016C64.2829 154.623 63.6825 153.288 62.9717 152.019C61.0013 148.946 59.6865 147.177 59.0236 146.709C57.9776 145.619 56.8727 144.649 55.7126 143.793C52.6999 141.86 50.8253 140.835 50.0813 140.728C47.4038 139.715 44.4906 139.167 41.3416 139.086ZM42.8185 106.868C59.0788 127.607 69.7042 143.713 74.6909 155.191C80.2412 166.47 85.4194 184.498 90.2331 209.269C72.1644 202.533 55.7568 199.011 41.0175 198.704C38.8335 198.554 36.2812 198.481 33.3606 198.481C18.7908 198.481 -4.93864 200.338 -37.835 204.059C3.79001 213.716 35.1284 223.905 56.1803 234.632C48.9985 229.591 41.5184 225.11 33.74 221.185C28.8674 217.51 26.9854 213.766 28.1013 209.952C29.6997 207.271 33.228 205.932 38.6899 205.932C41.3858 205.932 44.5495 206.258 48.1846 206.91C55.7752 207.52 65.5498 210.217 77.5047 215.005L90.9807 215.899C92.6491 216.282 96.1958 218.193 101.617 221.638C102.063 221.807 102.461 221.891 102.822 221.891C103.238 221.891 103.599 221.776 103.901 221.542C105.628 220.429 105.101 215.204 102.313 205.87C100.022 197.649 96.0522 187.828 90.4025 176.407C89.3676 173.364 88.712 170.752 88.4358 168.565C87.9533 162.243 89.7911 159.085 93.9529 159.085C94.1739 159.085 94.4022 159.093 94.6379 159.112C99.9046 160.067 105.562 164.153 111.609 171.362C115.528 176.717 119.13 181.854 122.419 186.776C106.578 156.968 83.3275 132.461 52.6631 113.252C49.3889 111.103 46.1074 108.974 42.8222 106.868H42.8185Z" fill="#00D0EA"/>
</g>
<path d="M153.625 37.3752C144.757 37.6054 137.38 40.7896 131.491 46.9202C125.601 53.0507 122.545 60.7312 122.32 69.9616C122.327 72.9732 122.703 75.8582 123.44 78.6281L124.78 82.6486C125.845 85.2574 127.2 87.6667 128.842 89.8764C129.822 91.1847 130.864 92.3893 131.969 93.498C130.146 89.7422 129.082 85.3034 128.78 80.178L128.703 75.8429C129.126 73.2456 129.8 70.8325 130.728 68.6035C132.584 64.1495 135.45 60.4397 139.321 57.4703C141.258 55.9856 143.445 54.6851 145.887 53.5725L149.736 52.0456C151.946 51.6274 154.082 51.3934 156.141 51.3474C156.465 51.309 156.829 51.2937 157.231 51.2937C159.006 51.2937 161.518 51.6466 164.77 52.3602C168.081 53.2656 171.145 54.781 173.966 56.8987C178.625 60.198 181.98 65.1086 184.028 71.6266C184.271 72.5781 184.477 73.4873 184.651 74.3467L184.934 69.9616C184.709 60.7312 181.653 53.0507 175.764 46.9202C169.874 40.7896 162.494 37.6054 153.625 37.3752ZM196.333 17C199.508 45.1247 200.145 66.1713 198.241 80.1396C196.963 94.1272 191.549 115.013 182.006 142.8C155.559 121.604 134.389 106.519 118.501 97.5454C103.087 88.2843 77.3103 76.0193 41.1619 60.7543H41.1582C101.419 118.143 137.704 161.901 150.016 192.029C153.471 199.533 156.34 207.083 158.616 214.679C160.313 218.388 162.637 229.66 165.591 248.485C165.838 240.394 165.392 233.243 164.258 227.04C163.337 219.593 156.999 199.061 145.243 165.442C142.963 154.953 142.797 147.442 144.742 142.911C146.311 139.466 148.373 137.739 150.929 137.739C152.546 137.739 154.362 138.434 156.373 139.815C159.385 142.098 165.374 151.608 174.338 168.343C175.815 169.935 177.388 170.729 179.049 170.729C179.826 170.729 180.621 170.556 181.439 170.211C185.472 168.837 189.512 163.739 193.563 154.907C200.263 125.831 204.708 109.68 206.888 106.446C208.818 103.699 210.682 102.322 212.475 102.322C214.291 102.322 216.037 103.73 217.713 106.538L220.287 111.813C222.563 127.258 224.014 141.722 224.64 155.199C225.572 165.864 225.064 181.179 223.116 201.144C221.112 215.569 217.087 233.611 211.043 255.268C207.894 266.386 204.436 276.51 200.657 285.641C204.343 279.648 207.559 273.782 210.302 268.051C218.39 251.455 224.143 231.666 227.565 208.69C236.385 142.063 230.264 86.7229 209.201 42.6656C205.051 33.8418 200.764 25.2866 196.337 17H196.333Z" fill="#FEA621"/>
</g>
<defs>
<clipPath id="clip0_57_13">
<rect width="362" height="351" rx="175.5" fill="white"/>
</clipPath>
</defs>
</svg>
