<svg width="62" height="93" viewBox="0 0 62 93" fill="none" xmlns="http://www.w3.org/2000/svg">
<mask id="mask0_54_7" style="mask-type:luminance" maskUnits="userSpaceOnUse" x="0" y="0" width="62" height="93">
<path d="M0 0H61.7552V92.625H0V0Z" fill="white"/>
</mask>
<g mask="url(#mask0_54_7)">
<path d="M32.1196 46.6824C22.5987 47.4376 14.7237 39.4896 15.4737 29.8907C16.0623 22.3386 22.1248 16.2188 29.6144 15.6251C39.13 14.8699 47.0102 22.8178 46.2602 32.4167C45.6717 39.9688 39.604 46.0834 32.1196 46.6824ZM30.4008 0.00527231C12.6821 0.26569 -0.870006 15.7709 0.041453 33.6199C1.3852 60.0001 23.7394 85.7917 29.5154 92.0365C30.2446 92.8282 31.4894 92.823 32.2237 92.0313C38.1821 85.5834 61.755 58.3699 61.755 31.1511C61.755 13.7917 47.6717 -0.255144 30.4008 0.00527231Z" fill="#E60012"/>
</g>
</svg>
