<svg width="84" height="84" viewBox="0 0 84 84" fill="none" xmlns="http://www.w3.org/2000/svg">
<mask id="mask0_54_12" style="mask-type:luminance" maskUnits="userSpaceOnUse" x="0" y="0" width="84" height="84">
<path d="M0 0H83.6719V83.6719H0V0Z" fill="white"/>
</mask>
<g mask="url(#mask0_54_12)">
<path d="M42.0677 0C40.6927 0 39.3177 0.067709 37.9479 0.203125C36.5729 0.338542 35.2135 0.541667 33.8646 0.8125C32.5104 1.07812 31.1771 1.41146 29.8594 1.8125C28.5365 2.21354 27.2448 2.67708 25.9688 3.20313C24.6979 3.72917 23.4531 4.31771 22.2396 4.96875C21.0208 5.61979 19.8438 6.32812 18.6979 7.09375C17.5521 7.85938 16.4479 8.67708 15.3802 9.55208C14.3177 10.4271 13.2969 11.349 12.3229 12.3229C11.349 13.2969 10.4219 14.3177 9.54687 15.3854C8.67708 16.4479 7.85417 17.5521 7.08854 18.6979C6.32292 19.8438 5.61458 21.026 4.96875 22.2396C4.31771 23.4531 3.72917 24.6979 3.20313 25.974C2.67708 27.2448 2.21354 28.5417 1.8125 29.8594C1.41146 31.1771 1.07813 32.5104 0.807292 33.8646C0.541667 35.2135 0.338541 36.5781 0.203125 37.9479C0.0677083 39.3177 0 40.6927 0 42.0729C0 43.4479 0.0677083 44.8229 0.203125 46.1927C0.338541 47.5677 0.541667 48.9271 0.807292 50.2813C1.07813 51.6302 1.41146 52.9635 1.8125 54.2813C2.21354 55.6042 2.67708 56.8958 3.20313 58.1719C3.72917 59.4427 4.31771 60.6875 4.96875 61.901C5.61458 63.1198 6.32292 64.2969 7.08854 65.4427C7.85417 66.5885 8.67708 67.6927 9.54687 68.7604C10.4219 69.8229 11.349 70.8438 12.3229 71.8177C13.2969 72.7917 14.3177 73.7188 15.3802 74.5938C16.4479 75.4635 17.5521 76.2865 18.6979 77.0521C19.8438 77.8177 21.0208 78.526 22.2396 79.1719C23.4531 79.8229 24.6979 80.4115 25.9688 80.9375C27.2448 81.4635 28.5365 81.9271 29.8594 82.3281C31.1771 82.7292 32.5104 83.0625 33.8646 83.3333C35.2135 83.599 36.5729 83.8021 37.9479 83.9375C39.3177 84.0729 40.6927 84.1406 42.0677 84.1406C43.4479 84.1406 44.8229 84.0729 46.1927 83.9375C47.5625 83.8021 48.9271 83.599 50.276 83.3333C51.6302 83.0625 52.9635 82.7292 54.2813 82.3281C55.599 81.9271 56.8958 81.4635 58.1667 80.9375C59.4427 80.4115 60.6875 79.8229 61.901 79.1719C63.1146 78.526 64.2969 77.8177 65.4427 77.0521C66.5885 76.2865 67.6927 75.4635 68.7604 74.5938C69.8229 73.7188 70.8438 72.7917 71.8177 71.8177C72.7917 70.8438 73.7135 69.8229 74.5885 68.7604C75.4635 67.6927 76.2813 66.5885 77.0469 65.4427C77.8125 64.2969 78.5208 63.1198 79.1719 61.901C79.8229 60.6875 80.4115 59.4427 80.9375 58.1719C81.4635 56.8958 81.9271 55.6042 82.3281 54.2813C82.7292 52.9635 83.0625 51.6302 83.3281 50.2813C83.599 48.9271 83.8021 47.5677 83.9375 46.1927C84.0729 44.8229 84.1406 43.4479 84.1406 42.0729C84.1406 40.6927 84.0729 39.3177 83.9375 37.9479C83.8021 36.5781 83.599 35.2135 83.3281 33.8646C83.0625 32.5156 82.724 31.1771 82.3281 29.8594C81.9271 28.5417 81.4635 27.2448 80.9375 25.974C80.4063 24.6979 79.8177 23.4583 79.1719 22.2396C78.5208 21.026 77.8125 19.8438 77.0469 18.6979C76.2813 17.5521 75.4635 16.4479 74.5885 15.3854C73.7135 14.3177 72.7917 13.3021 71.8177 12.3229C70.8438 11.349 69.8229 10.4271 68.7552 9.55208C67.6927 8.67708 66.5885 7.85938 65.4427 7.09375C64.2969 6.32812 63.1146 5.61979 61.901 4.96875C60.6823 4.32292 59.4427 3.73437 58.1667 3.20833C56.8958 2.67708 55.599 2.21354 54.2813 1.8125C52.9635 1.41667 51.6302 1.07812 50.276 0.8125C48.9271 0.541667 47.5625 0.338542 46.1927 0.203125C44.8229 0.067709 43.4479 0 42.0677 0ZM67.599 60.2813C67.0573 61.1823 66.4375 62.026 65.7344 62.8125C65.0313 63.5938 64.2604 64.3073 63.4219 64.9479C62.5833 65.5833 61.6927 66.1406 60.75 66.6094C59.8073 67.0781 58.8333 67.4583 57.8177 67.7396C56.8021 68.026 55.7708 68.2135 54.7188 68.3021C53.6719 68.3906 52.625 68.3802 51.5729 68.2708C50.526 68.1615 49.5 67.9531 48.4896 67.651C47.4844 67.3438 46.5104 66.9479 45.5781 66.4583C39.6146 63.3438 34.25 59.4063 29.4896 54.651C24.724 49.875 20.7813 44.4948 17.6667 38.5104C17.1823 37.5781 16.7917 36.6094 16.4896 35.599C16.1823 34.5937 15.9792 33.5677 15.8698 32.5208C15.7656 31.474 15.7552 30.4271 15.849 29.3802C15.9375 28.3333 16.125 27.3021 16.4115 26.2917C16.6979 25.2813 17.0729 24.3073 17.5469 23.3646C18.0156 22.4271 18.5729 21.5365 19.2083 20.7031C19.849 19.8698 20.5625 19.099 21.3438 18.401C22.1302 17.7031 22.974 17.0833 23.875 16.5417C24.1719 16.3594 24.4896 16.2135 24.8177 16.0938C25.1458 15.9792 25.4792 15.8906 25.8281 15.8385C26.1719 15.7865 26.5208 15.7708 26.8646 15.7865C27.2135 15.8021 27.5573 15.8542 27.8958 15.9375C28.2344 16.0208 28.5625 16.1406 28.8802 16.2865C29.1927 16.4375 29.4948 16.6146 29.776 16.8229C30.0573 17.0313 30.3125 17.2604 30.5469 17.5208C30.7813 17.776 30.9896 18.0573 31.1719 18.3542L34.5885 24.0729C34.7917 24.4219 34.9583 24.7865 35.0781 25.1719C35.2031 25.5573 35.276 25.9479 35.3125 26.349C35.3438 26.7552 35.3333 27.1563 35.276 27.5521C35.2188 27.9531 35.1146 28.3385 34.9688 28.7188C34.8229 29.0938 34.6406 29.4479 34.4115 29.7813C34.1875 30.1146 33.9271 30.4219 33.6302 30.6979C33.3385 30.974 33.0156 31.2083 32.6667 31.4115C32.3177 31.6146 31.9479 31.776 31.5677 31.8958C31.3021 31.974 31.0521 32.0781 30.8073 32.2135C30.5677 32.349 30.349 32.5052 30.1458 32.6927C29.9427 32.875 29.7604 33.0833 29.6042 33.3073C29.4479 33.5365 29.3229 33.776 29.2188 34.0313C29.1198 34.2865 29.0469 34.5521 29.0052 34.8229C28.9635 35.0938 28.9531 35.3646 28.974 35.6406C28.9948 35.9167 29.0469 36.1823 29.1302 36.4427C29.2135 36.7083 29.3229 36.9583 29.4635 37.1927C31.6146 40.7813 34.1719 44.0521 37.125 47.0156C40.0885 49.9844 43.375 52.5417 46.974 54.6927C47.4375 54.974 47.9375 55.1406 48.4792 55.1927C49.0156 55.2448 49.5417 55.1719 50.0469 54.9792C50.6146 54.7708 51.0938 54.4375 51.4948 53.9896C51.8906 53.5365 52.1615 53.0156 52.2969 52.4323C52.4271 52.0573 52.5938 51.6979 52.8021 51.3594C53.0052 51.0208 53.25 50.7083 53.526 50.4271C53.8021 50.1406 54.1094 49.8906 54.4427 49.6719C54.7708 49.4583 55.125 49.2813 55.4948 49.1406C55.8698 49.0052 56.25 48.9115 56.6458 48.8594C57.0365 48.8021 57.4323 48.7969 57.8281 48.8333C58.224 48.8646 58.6094 48.9427 58.9896 49.0677C59.3646 49.1875 59.724 49.349 60.0677 49.5521L65.7865 52.9688C66.3906 53.3385 66.901 53.8021 67.3177 54.3698C67.7344 54.9427 68.026 55.5677 68.1979 56.25C68.3698 56.9375 68.401 57.625 68.2969 58.3229C68.1927 59.0208 67.9635 59.6719 67.599 60.2813Z" fill="#004AAD"/>
</g>
</svg>
