<svg width="152" height="136" viewBox="0 0 152 136" fill="none" xmlns="http://www.w3.org/2000/svg">
<mask id="mask0_0_1" style="mask-type:luminance" maskUnits="userSpaceOnUse" x="0" y="0" width="152" height="136">
<path d="M0 0.666504H152V136H0V0.666504Z" fill="white"/>
</mask>
<g mask="url(#mask0_0_1)">
<path d="M60.7395 9.71338L2.87489 109.656C-3.90636 121.364 4.57281 136.005 18.1301 136.005H133.859C147.422 136.005 155.896 121.364 149.12 109.656L91.2499 9.71338C84.4686 -1.99495 67.5207 -1.99495 60.7395 9.71338L2.87489 109.656C-3.90636 121.364 4.57281 136.005 18.1301 136.005H133.859C147.422 136.005 155.896 121.364 149.12 109.656L91.2499 9.71338C84.4686 -1.99495 67.5207 -1.99495 60.7395 9.71338Z" fill="#F9AF40"/>
</g>
<path d="M79.6355 97.521L87.4741 37.3127C87.7866 35.3856 86.0314 33.6616 83.7501 33.6616H68.2449C66.047 33.6616 64.3178 35.2606 64.4949 37.1304L72.1616 97.3387C72.5262 101.151 79.0157 101.313 79.6355 97.521Z" fill="#2E2B30"/>
<path d="M85.5886 112.557C85.5886 117.839 81.297 122.12 75.9949 122.12C70.698 122.12 66.4011 117.839 66.4011 112.557C66.4011 107.271 70.698 102.99 75.9949 102.99C81.297 102.99 85.5886 107.271 85.5886 112.557Z" fill="#2E2B30"/>
</svg>
